<?xml version="1.0" encoding="utf-8"?>
<!-- Generator: Adobe Illustrator 25.2.1, SVG Export Plug-In . SVG Version: 6.00 Build 0)  -->
<svg version="1.1" id="Warstwa_1" xmlns="http://www.w3.org/2000/svg" xmlns:xlink="http://www.w3.org/1999/xlink" x="0px" y="0px"
	 viewBox="0 0 18 25" style="enable-background:new 0 0 18 25;" xml:space="preserve">
<path id="delivery-time-tool" d="M14.9,9.3l-0.5,0.5c2.4,2.9,2.1,7.2-0.8,9.6S6.4,21.5,4,18.6c-0.9-1-1.4-2.3-1.6-3.7H1.7
	c-0.3,0-0.5-0.2-0.5-0.5c0-0.1,0-0.2,0.1-0.3l1.5-2.6c0.2-0.3,0.5-0.3,0.7-0.2c0.1,0,0.1,0.1,0.2,0.2l1.5,2.6
	c0.1,0.3,0.1,0.6-0.2,0.7c-0.1,0-0.2,0.1-0.3,0.1H4.1c0.4,2.8,3,4.7,5.8,4.3s4.7-3,4.3-5.8c-0.4-2.8-3-4.7-5.8-4.3
	C7.7,9.3,7,9.5,6.4,10C6,10.2,5.4,10.2,5.1,9.8C4.9,9.4,4.9,8.9,5.3,8.6c0,0,0,0,0,0c0.9-0.6,1.9-1,3-1.1v-1H7.6
	C7.4,6.4,7.2,6.3,7.2,6c0,0,0,0,0,0V5.6c0-0.2,0.2-0.4,0.4-0.4c0,0,0,0,0,0h3.2c0.2,0,0.4,0.2,0.4,0.4c0,0,0,0,0,0V6
	c0,0.2-0.2,0.4-0.4,0.4c0,0,0,0,0,0h-0.8v1c1.3,0.2,2.6,0.7,3.6,1.6l0.4-0.4l-0.3-0.3c-0.2-0.2-0.2-0.4,0-0.6c0,0,0,0,0,0l0.3-0.4
	c0.2-0.2,0.4-0.2,0.6,0L16,8.5c0.2,0.2,0.2,0.4,0,0.6l-0.4,0.4c-0.2,0.2-0.4,0.2-0.6,0L14.9,9.3L14.9,9.3z M10.1,13.3
	c-0.5-0.5-1.4-0.5-1.9,0C8.1,13.4,8,13.4,8,13.5C7.7,14,7.7,14.6,8,15c0.3,0.5,1,0.7,1.6,0.5l1.7,1.4c0.1,0.1,0.4,0.1,0.5,0
	c0.1-0.1,0.1-0.3,0-0.5l-1.4-1.8C10.6,14.2,10.5,13.7,10.1,13.3L10.1,13.3z"/>
</svg>
